{"title":"Oz the Great and Powerful 2013 DVDrip English Klam","uid":9964485,"size":2196667325,"categoryP":"video","categoryS":"movies","magnet":"?xt=urn:btih:0b8846e34bb1fc2f52584b5581a6cf48db9aa5a1&amp;dn=Oz+the+Great+and+Powerful+2013+DVDrip+English+Klam&amp;tr=udp%3A%2F%2Ftracker.openbittorrent.com%3A80&amp;tr=udp%3A%2F%2Fopen.demonii.com%3A1337&amp;tr=udp%3A%2F%2Ftracker.coppersurfer.tk%3A6969&amp;tr=udp%3A%2F%2Fexodus.desync.com%3A6969","seeders":10,"leechers":4,"uploader":"Klambake","files":-1,"time":1397555288,"description":"With: James Franco, Mila Kunis and Michelle Williams\n\nOscar Diggs (James Franco), een eigenaardige circusartiest die zich bezighoudt met tovenarij, wordt uit het stoffige stadje Kansas gegooid en besluit het in te ruilen voor het magistrale Land van Oz. Eenmaal aangekomen blijkt roem en fortuin voor het rapen te liggen, totdat hij drie heksen ontmoet: Theodora (Mila Kunis), Evanora (Rachel Weiz) en Glinda (Michelle Williams). Zij zijn er niet van overtuigd dat Oscar de geweldige tovenaar is die hij beweert te zijn. Zijn bekwaamheid wordt op de proef gesteld wanneer het Land van Oz en zijn inwoners onder kwaadaardige dreiging komt te staan. Door middel van ingenieuze illusies en zelfs een beetje echte tovenarij, weet Oscar niet alleen in een echte tovenaar te veranderen maar ook in betere man. Gebaseerd op L. Frank Baums geliefde personage, de tovenaar van Oz.\n\nA small-time magician is swept away to an enchanted land and is forced into a power struggle between three witches.\n &lt;a href=&quot;\nhttp://www.imdb.com/title/tt1623205&quot; rel=&quot;nofollow&quot; target=&quot;_NEW&quot;&gt;\nhttp://www.imdb.com/title/tt1623205&lt;/a&gt;\t\n\n--------------------- Dutch Friends 4ever ---------------------\n---------------------------------------------------------------\n- Bezoek ook eens mijn vrienden op: &lt;a href=&quot; http://www.Film-Test.nl&quot; rel=&quot;nofollow&quot; target=&quot;_NEW&quot;&gt; http://www.Film-Test.nl&lt;/a&gt; --\n----- voor mijn Nederlandse Sync. ondertitels ---- en meer ----\n------- http://www.Film-Test.nl ---- Over Films en meer -------\n---------------------------------------------------------------\n\nGeneral:\n\nComplete name                            : Oz the Great and PowerfulOz the Great and Powerful.avi\nFormat                                   : AVI\nFormat/Info                              : Audio Video Interleave\nFile size                                : 2.05 GiB\nDuration                                 : 2h 5mn\nOverall bit rate                         : 2 340 Kbps\n\nVideo:\n\nFormat                                   : MPEG-4 Visual\nFormat profile                           : Simple@L3\nFormat settings, BVOP                    : No\nFormat settings, QPel                    : No\nFormat settings, GMC                     : No warppoints\nFormat settings, Matrix                  : Default (H.263)\nCodec ID                                 : XVID\nCodec ID/Hint                            : XviD\nDuration                                 : 2h 5mn\nSource duration                          : 2h 5mn\nBit rate                                 : 1 945 Kbps\nWidth                                    : 720 pixels\nHeight                                   : 304 pixels\nDisplay aspect ratio                     : 2.35:1\nFrame rate                               : 25.000 fps\nColor space                              : YUV\nChroma subsampling                       : 4:2:0\nBit depth                                : 8 bits\nScan type                                : Progressive\nCompression mode                         : Lossy\nBits/(Pixel*Frame)                       : 0.355\nStream size                              : 1.70 GiB (83%)\nWriting library                          : XviD 1.1.2 (UTC 2006-11-01)\n\nAudio:\n\nFormat                                   : AC-3\nFormat/Info                              : Audio Coding 3\nMode extension                           : CM (complete main)\nFormat settings, Endianness              : Big\nCodec ID                                 : 2000\nDuration                                 : 2h 5mn\nBit rate mode                            : Constant\nBit rate                                 : 384 Kbps\nChannel(s)                               : 6 channels\nChannel positions                        : Front: L C R, Side: L R, LFE\nSampling rate                            : 48.0 KHz\nBit depth                                : 16 bits\nCompression mode                         : Lossy\nStream size                              : 344 MiB (16%)\nAlignment                                : Aligned on interleaves\nInterleave, duration                     : 32 ms (0.80 video frame)\n\n\n","torrent":{"xt":"urn:btih:0b8846e34bb1fc2f52584b5581a6cf48db9aa5a1","amp;dn":"Oz+the+Great+and+Powerful+2013+DVDrip+English+Klam","amp;tr":["udp%3A%2F%2Ftracker.openbittorrent.com%3A80","udp%3A%2F%2Fopen.demonii.com%3A1337","udp%3A%2F%2Ftracker.coppersurfer.tk%3A6969","udp%3A%2F%2Fexodus.desync.com%3A6969"],"infoHash":"0b8846e34bb1fc2f52584b5581a6cf48db9aa5a1","infoHashBuffer":{"type":"Buffer","data":[11,136,70,227,75,177,252,47,82,88,75,85,129,166,207,72,219,154,165,161]},"announce":[],"urlList":[]}}